# xmcd
#
# Track frame offsets:
#	150
#	16073
#	33645
#	52448
#	67740
#	84148
#	97525
#	115653
#	128388
#	143238
#	156828
#	170010
#	182015
#	195470
#
# Disc length: 2817 seconds
#
# Revision: 3
# Processed by: cddbd v1.5.2PL0 Copyright (c) Steve Scherf et al.
# Submitted via: EasyCDDAExtractor 15.3.0.1
#
DISCID=a70aff0e
DTITLE=The Bluebirds [US] - Swamp Stomp
DYEAR=1994
DGENRE=Blues
TTITLE0=Blues In A Honky Tonk Key
TTITLE1=Swamp Stomp
TTITLE2=Testin' The Water
TTITLE3=3rd House On The Left
TTITLE4=No More Cane On The Brazos
TTITLE5=Briarpatch
TTITLE6=First You Cry
TTITLE7=I'm Your Man
TTITLE8=Chasha
TTITLE9=I Can't Be Replaced
TTITLE10=Bon Ton Roulet
TTITLE11=Justine
TTITLE12=Ten More Miles
TTITLE13=Leavin' Mississippi
EXTD=
EXTT0=
EXTT1=
EXTT2=
EXTT3=
EXTT4=
EXTT5=
EXTT6=
EXTT7=
EXTT8=
EXTT9=
EXTT10=
EXTT11=
EXTT12=
EXTT13=
PLAYORDER=
